<svg xmlns="http://www.w3.org/2000/svg" height="32px" viewBox="0 -960 960 960" width="32px" fill="#00e676">
  <path d="M280-560q-17 0-28.5-11.5T240-600q0-17 11.5-28.5T280-640q17 0 28.5 11.5T320-600q0 17-11.5 28.5T280-560Zm200 0q-17 0-28.5-11.5T440-600q0-17 11.5-28.5T480-640q17 0 28.5 11.5T520-600q0 17-11.5 28.5T480-560Zm200 0q-17 0-28.5-11.5T640-600q0-17 11.5-28.5T680-640q17 0 28.5 11.5T720-600q0 17-11.5 28.5T680-560ZM160-240q-33 0-56.5-23.5T80-320v-400q0-33 23.5-56.5T160-800h640q33 0 56.5 23.5T880-720v400q0 33-23.5 56.5T800-240H160Zm0-80h640v-400H160v400Zm160 160v-80h320v80H320ZM160-720v400-400Z" />
</svg>
